<svg width="30" height="30" viewBox="0 0 30 30" fill="none" xmlns="http://www.w3.org/2000/svg">
<path d="M15.2541 0.0585938C7.23328 0.0585938 0.670776 6.60651 0.670776 14.6711C0.670776 21.9628 6.00828 28.0148 12.9791 29.1086V18.9003H9.27494V14.6711H12.9791V11.4482C12.9791 7.78776 15.152 5.77526 18.4916 5.77526C20.0812 5.77526 21.7437 6.05234 21.7437 6.05234V9.65443H19.9062C18.0979 9.65443 17.5291 10.7773 17.5291 11.9294V14.6711H21.5833L20.927 18.9003H17.5291V29.1086C20.9656 28.5659 24.0948 26.8125 26.3519 24.1649C28.609 21.5174 29.8452 18.1502 29.8374 14.6711C29.8374 6.60651 23.2749 0.0585938 15.2541 0.0585938Z" fill="#F3F5FB"/>
</svg>
