<svg width="171" height="60" viewBox="0 0 171 60" fill="none" xmlns="http://www.w3.org/2000/svg">
<path d="M29.285 47V16.67H34.775L42.245 29.36C43.625 31.73 44.87 33.92 45.98 35.93C47.12 37.94 47.9 39.35 48.32 40.16L48.95 41.42C48.77 38.69 48.68 34.685 48.68 29.405V16.67H53.315V47H47.825L40.31 34.355C38.96 32.075 37.715 29.93 36.575 27.92C35.465 25.88 34.685 24.41 34.235 23.51L33.56 22.205C33.8 25.205 33.92 29.24 33.92 34.31V47H29.285ZM67.2059 42.905H79.6259V47H62.5709V16.67H67.2059V42.905ZM93.597 35.705H103.317L102.822 34.175C101.682 30.635 100.752 27.71 100.032 25.4C99.312 23.06 98.877 21.605 98.727 21.035L98.502 20.18C98.172 21.59 96.702 26.255 94.092 34.175L93.597 35.705ZM106.962 47L104.577 39.575H92.337L89.907 47H85.002L95.487 16.67H101.562L111.912 47H106.962ZM123.934 43.175H129.874C133.684 43.175 135.589 41.6 135.589 38.45C135.589 36.92 135.064 35.735 134.014 34.895C132.994 34.025 131.464 33.59 129.424 33.59H123.934V43.175ZM123.934 20.495V29.81H128.119C130.369 29.81 132.034 29.36 133.114 28.46C134.224 27.53 134.779 26.33 134.779 24.86C134.779 23.57 134.284 22.52 133.294 21.71C132.334 20.9 130.864 20.495 128.884 20.495H123.934ZM119.299 16.67H129.244C132.424 16.67 134.929 17.42 136.759 18.92C138.589 20.39 139.504 22.34 139.504 24.77C139.504 26.45 139.024 27.92 138.064 29.18C137.134 30.44 135.934 31.25 134.464 31.61C136.114 31.91 137.494 32.675 138.604 33.905C139.744 35.135 140.314 36.785 140.314 38.855C140.314 41.255 139.489 43.22 137.839 44.75C136.219 46.25 133.924 47 130.954 47H119.299V16.67Z" fill="white"/>
<path d="M4 18.4614L14 30.9475L4 43.0768" stroke="#FF0178" stroke-width="5" stroke-linecap="square"/>
<rect y="9.23096" width="5" height="3.84615" fill="#FF0178"/>
</svg>
