<svg width="30" height="30" viewBox="0 0 30 30" fill="none" xmlns="http://www.w3.org/2000/svg">
<path d="M9.12911 0H21.3791C26.0458 0 29.8374 3.79167 29.8374 8.45833V20.7083C29.8374 22.9516 28.9463 25.103 27.3601 26.6893C25.7738 28.2755 23.6224 29.1667 21.3791 29.1667H9.12911C4.46244 29.1667 0.670776 25.375 0.670776 20.7083V8.45833C0.670776 6.21504 1.56192 4.06363 3.14816 2.47739C4.73441 0.891143 6.88582 0 9.12911 0M8.83744 2.91667C7.44506 2.91667 6.1097 3.46979 5.12513 4.45436C4.14057 5.43892 3.58744 6.77428 3.58744 8.16667V21C3.58744 23.9021 5.93536 26.25 8.83744 26.25H21.6708C23.0632 26.25 24.3985 25.6969 25.3831 24.7123C26.3677 23.7277 26.9208 22.3924 26.9208 21V8.16667C26.9208 5.26458 24.5729 2.91667 21.6708 2.91667H8.83744ZM22.9104 5.10417C23.3938 5.10417 23.8575 5.29622 24.1994 5.63809C24.5412 5.97995 24.7333 6.44362 24.7333 6.92708C24.7333 7.41055 24.5412 7.87422 24.1994 8.21608C23.8575 8.55794 23.3938 8.75 22.9104 8.75C22.4269 8.75 21.9632 8.55794 21.6214 8.21608C21.2795 7.87422 21.0874 7.41055 21.0874 6.92708C21.0874 6.44362 21.2795 5.97995 21.6214 5.63809C21.9632 5.29622 22.4269 5.10417 22.9104 5.10417ZM15.2541 7.29167C17.188 7.29167 19.0426 8.05989 20.4101 9.42735C21.7775 10.7948 22.5458 12.6495 22.5458 14.5833C22.5458 16.5172 21.7775 18.3719 20.4101 19.7393C19.0426 21.1068 17.188 21.875 15.2541 21.875C13.3202 21.875 11.4656 21.1068 10.0981 19.7393C8.73067 18.3719 7.96244 16.5172 7.96244 14.5833C7.96244 12.6495 8.73067 10.7948 10.0981 9.42735C11.4656 8.05989 13.3202 7.29167 15.2541 7.29167M15.2541 10.2083C14.0938 10.2083 12.981 10.6693 12.1605 11.4897C11.34 12.3102 10.8791 13.423 10.8791 14.5833C10.8791 15.7437 11.34 16.8565 12.1605 17.6769C12.981 18.4974 14.0938 18.9583 15.2541 18.9583C16.4144 18.9583 17.5272 18.4974 18.3477 17.6769C19.1682 16.8565 19.6291 15.7437 19.6291 14.5833C19.6291 13.423 19.1682 12.3102 18.3477 11.4897C17.5272 10.6693 16.4144 10.2083 15.2541 10.2083Z" fill="#F3F5FB"/>
</svg>
