<svg width="171" height="78" viewBox="0 0 171 78" fill="none" xmlns="http://www.w3.org/2000/svg">
<path d="M30.088 59V21.256H36.92L46.216 37.048C47.9333 39.9973 49.4827 42.7227 50.864 45.224C52.2827 47.7253 53.2533 49.48 53.776 50.488L54.56 52.056C54.336 48.6587 54.224 43.6747 54.224 37.104V21.256H59.992V59H53.16L43.808 43.264C42.128 40.4267 40.5787 37.7573 39.16 35.256C37.7787 32.7173 36.808 30.888 36.248 29.768L35.408 28.144C35.7067 31.8773 35.856 36.8987 35.856 43.208V59H30.088ZM77.2785 53.904H92.7345V59H71.5105V21.256H77.2785V53.904ZM110.121 44.944H122.217L121.601 43.04C120.182 38.6347 119.025 34.9947 118.129 32.12C117.233 29.208 116.691 27.3973 116.505 26.688L116.225 25.624C115.814 27.3787 113.985 33.184 110.737 43.04L110.121 44.944ZM126.753 59L123.785 49.76H108.553L105.529 59H99.4248L112.473 21.256H120.033L132.913 59H126.753ZM147.874 54.24H155.266C160.007 54.24 162.378 52.28 162.378 48.36C162.378 46.456 161.724 44.9813 160.418 43.936C159.148 42.8533 157.244 42.312 154.706 42.312H147.874V54.24ZM147.874 26.016V37.608H153.082C155.882 37.608 157.954 37.048 159.298 35.928C160.679 34.7707 161.37 33.2773 161.37 31.448C161.37 29.8427 160.754 28.536 159.522 27.528C158.327 26.52 156.498 26.016 154.034 26.016H147.874ZM142.106 21.256H154.482C158.439 21.256 161.556 22.1893 163.834 24.056C166.111 25.8853 167.25 28.312 167.25 31.336C167.25 33.4267 166.652 35.256 165.458 36.824C164.3 38.392 162.807 39.4 160.978 39.848C163.031 40.2213 164.748 41.1733 166.13 42.704C167.548 44.2347 168.258 46.288 168.258 48.864C168.258 51.8507 167.231 54.296 165.178 56.2C163.162 58.0667 160.306 59 156.61 59H142.106V21.256Z" fill="white"/>
<path d="M4 24L14 40.2319L4 56" stroke="#FF0178" stroke-width="5" stroke-linecap="square"/>
<rect y="12" width="5" height="5" fill="#FF0178"/>
</svg>
