<svg width="50" height="41" viewBox="0 0 50 41" fill="none" xmlns="http://www.w3.org/2000/svg">
<path d="M6.5 3.4452C6.5 1.59136 8.00283 0.0885315 9.85667 0.0885315H46.6433C48.4972 0.0885315 50 1.59136 50 3.4452V3.4452C50 5.29903 48.4972 6.80186 46.6433 6.80186H9.85667C8.00283 6.80186 6.5 5.29903 6.5 3.4452V3.4452ZM15.3061 20.2285C15.3061 18.3747 16.809 16.8719 18.6628 16.8719H46.6433C48.4972 16.8719 50 18.3747 50 20.2285V20.2285C50 22.0824 48.4972 23.5852 46.6433 23.5852H18.6628C16.809 23.5852 15.3061 22.0824 15.3061 20.2285V20.2285ZM0 37.0119C0 35.158 1.50283 33.6552 3.35667 33.6552H46.6433C48.4972 33.6552 50 35.158 50 37.0119V37.0119C50 38.8657 48.4972 40.3685 46.6433 40.3685H3.35667C1.50283 40.3685 0 38.8657 0 37.0119V37.0119Z" fill="white"/>
</svg>
