<svg width="50" height="40" viewBox="0 0 50 40" fill="none" xmlns="http://www.w3.org/2000/svg">
<path d="M9.375 3.33333C9.375 1.49238 10.8674 0 12.7083 0H46.6667C48.5076 0 50 1.49238 50 3.33333V3.33333C50 5.17428 48.5076 6.66667 46.6667 6.66667H12.7083C10.8674 6.66667 9.375 5.17428 9.375 3.33333V3.33333ZM0 20C0 18.1591 1.49238 16.6667 3.33333 16.6667H46.6667C48.5076 16.6667 50 18.1591 50 20V20C50 21.8409 48.5076 23.3333 46.6667 23.3333H3.33333C1.49239 23.3333 0 21.8409 0 20V20ZM15 36.6667C15 34.8257 16.4924 33.3333 18.3333 33.3333H46.6667C48.5076 33.3333 50 34.8257 50 36.6667V36.6667C50 38.5076 48.5076 40 46.6667 40H18.3333C16.4924 40 15 38.5076 15 36.6667V36.6667Z" fill="white"/>
</svg>
