<svg width="31" height="26" viewBox="0 0 31 26" fill="none" xmlns="http://www.w3.org/2000/svg">
<path d="M30.5083 3.83366C29.3854 4.34408 28.175 4.67949 26.9208 4.83991C28.2042 4.06699 29.1958 2.84199 29.6625 1.36908C28.4521 2.09824 27.1104 2.60866 25.6958 2.90033C24.5437 1.64616 22.925 0.916992 21.0875 0.916992C17.6604 0.916992 14.8604 3.71699 14.8604 7.17324C14.8604 7.66908 14.9188 8.15033 15.0208 8.60241C9.82917 8.33991 5.20625 5.84616 2.12917 2.06908C1.58958 2.98783 1.28333 4.06699 1.28333 5.20449C1.28333 7.37741 2.37708 9.30241 4.06875 10.3962C3.03333 10.3962 2.07083 10.1045 1.225 9.66699C1.225 9.66699 1.225 9.66699 1.225 9.71074C1.225 12.7441 3.38333 15.2816 6.24167 15.8503C5.71667 15.9962 5.1625 16.0691 4.59375 16.0691C4.2 16.0691 3.80625 16.0253 3.42708 15.9524C4.21458 18.417 6.50417 20.2545 9.26042 20.2982C7.13125 21.9899 4.43333 22.9816 1.4875 22.9816C0.991667 22.9816 0.495833 22.9524 0 22.8941C2.77083 24.6732 6.06667 25.7087 9.59583 25.7087C21.0875 25.7087 27.4021 16.1712 27.4021 7.90241C27.4021 7.62533 27.4021 7.36282 27.3875 7.08574C28.6125 6.21074 29.6625 5.10241 30.5083 3.83366Z" fill="#F3F5FB"/>
</svg>
